# xmcd CD database file
#
# Track frame offsets:
#	150
#	24362
#	39895
#
# Disc length: 852 seconds
#
# Revision: 0
# Processed by: cddbd v1.5PL3 Copyright (c) Steve Scherf et al.
# Submitted via: CDex 1.51
#
DISCID=14035203
DTITLE=Raphael - eternal wish 〜届かぬ君へ〜
DYEAR=1999
DGENRE=Rock
TTITLE0=eternal wish 〜届かぬ君へ〜
TTITLE1=窓際の夢
TTITLE2=eternal wish 〜届かぬ君へ〜 (Instrumental)
EXTD=YEAR: 1999
EXTT0=
EXTT1=
EXTT2=
PLAYORDER=
